<mxfile host="app.diagrams.net" modified="2024-04-07T00:22:12.947Z" agent="Mozilla/5.0 (X11; Linux x86_64) AppleWebKit/537.36 (KHTML, like Gecko) Chrome/123.0.0.0 Safari/537.36" version="24.2.2" etag="AC2xZuayidiLfSUDZDT5" type="github">
  <diagram name="PÃ¡gina-1" id="v6i4LX8MK3JXupTtBqXW">
    <mxGraphModel>
      <root>
        <mxCell id="0" />
        <mxCell id="1" parent="0" />
      </root>
    </mxGraphModel>
  </diagram>
</mxfile>
